<svg id="Layer_1" fill="white" enable-background="new 0 0 512 512" height="512" viewBox="0 0 512 512" width="512" xmlns="http://www.w3.org/2000/svg"><path d="m476.335 143.783c-21.82-30.875-51.609-54.5-86.376-68.583-.418-7.91-6.945-14.2-14.959-14.2h-360c-8.284 0-15 6.716-15 15v360c0 8.284 6.716 15 15 15h360c8.014 0 14.541-6.29 14.96-14.2 34.767-14.082 64.556-37.708 86.376-68.583 23.331-33.014 35.664-71.819 35.664-112.217s-12.333-79.203-35.665-112.217zm-87.908 150.559c-2.455-4.939-7.537-8.342-13.427-8.342h-18c-16.542 0-30-13.458-30-30s13.458-30 30-30h18c5.912 0 11.01-3.429 13.454-8.399 6.283 11.628 9.665 24.743 9.665 38.399 0 13.535-3.4 26.673-9.692 38.342zm-28.427 126.658h-330v-330h330v105h-3c-33.084 0-60 26.916-60 60s26.916 60 60 60h3zm30-17.095v-64.24c24.236-21.173 38.119-51.598 38.119-83.665 0-32.368-13.813-62.511-38.119-83.683v-64.222c55.636 27.638 92 85.142 92 147.905s-36.364 120.267-92 147.905z"/><path d="m251.221 212.594-38.196-7.222-18.522-34.299v-.001c-4.741-8.777-13.527-14.017-23.502-14.017-9.977 0-18.762 5.241-23.502 14.019l-18.523 34.299-38.197 7.222c-9.72 1.838-17.356 8.549-20.428 17.953-3.071 9.404-.868 19.329 5.893 26.549l26.845 28.672-5.015 39.021c-1.268 9.864 2.787 19.23 10.847 25.054 4.695 3.393 10.104 5.119 15.574 5.118 3.921 0 7.875-.887 11.617-2.682l34.888-16.725 34.887 16.724c8.966 4.299 19.131 3.389 27.192-2.436 8.061-5.824 12.116-15.19 10.848-25.055l-5.015-39.022 26.845-28.67c6.762-7.221 8.964-17.147 5.893-26.55-3.072-9.403-10.709-16.114-20.429-17.952zm-35.544 54.095c-5.367 5.731-7.771 13.176-6.769 20.961l4.493 34.961-31.229-14.971c-3.603-1.727-7.387-2.59-11.172-2.59s-7.571.863-11.173 2.59l-31.228 14.97 4.493-34.961c1.001-7.787-1.403-15.231-6.769-20.96l-24.092-25.731 34.261-6.478c7.798-1.476 14.169-6.134 17.938-13.115l16.57-30.677 16.567 30.678c3.77 6.983 10.142 11.642 17.942 13.117l34.259 6.477z"/></svg>